<svg width="20" height="20" viewBox="0 0 20 20" fill="none" xmlns="http://www.w3.org/2000/svg">
<circle cx="10" cy="10" r="9" fill="white" stroke="black" stroke-width="2"/>
<path d="M9.17577 9.18035H11.0478V15.6364H9.17577V9.18035ZM10.1118 8.28035C9.76777 8.28035 9.48777 8.18035 9.27177 7.98035C9.05577 7.78035 8.94777 7.53235 8.94777 7.23635C8.94777 6.94035 9.05577 6.69235 9.27177 6.49235C9.48777 6.29235 9.76777 6.19235 10.1118 6.19235C10.4558 6.19235 10.7358 6.28835 10.9518 6.48035C11.1678 6.67235 11.2758 6.91235 11.2758 7.20035C11.2758 7.51235 11.1678 7.77235 10.9518 7.98035C10.7358 8.18035 10.4558 8.28035 10.1118 8.28035Z" fill="black"/>
</svg>
