<svg width="20" height="20" viewBox="0 0 20 20" fill="none" xmlns="http://www.w3.org/2000/svg">
<path d="M2 10C2 5.58172 5.58172 2 10 2L10 0C4.47715 0 0 4.47715 0 10L2 10ZM10 2C14.4183 2 18 5.58172 18 10H20C20 4.47715 15.5228 0 10 0L10 2ZM18 10C18 14.4183 14.4183 18 10 18V20C15.5228 20 20 15.5228 20 10H18ZM10 18C5.58172 18 2 14.4183 2 10L0 10C0 15.5228 4.47715 20 10 20V18Z" fill="white"/>
<path d="M10.293 13.7191C10.6835 14.1096 11.3167 14.1096 11.7072 13.7191C12.0978 13.3285 12.0978 12.6954 11.7072 12.3049L10.293 13.7191ZM8.00012 10.012L7.29302 9.30486C7.10548 9.49239 7.00012 9.74675 7.00012 10.012C7.00012 10.2772 7.10548 10.5315 7.29302 10.7191L8.00012 10.012ZM11.7072 7.71907C12.0978 7.32855 12.0978 6.69538 11.7072 6.30486C11.3167 5.91433 10.6835 5.91433 10.293 6.30486L11.7072 7.71907ZM11.7072 12.3049L8.70723 9.30486L7.29302 10.7191L10.293 13.7191L11.7072 12.3049ZM8.70723 10.7191L11.7072 7.71907L10.293 6.30486L7.29302 9.30486L8.70723 10.7191Z" fill="white"/>
</svg>
