<svg width="38" height="38" viewBox="0 0 38 38" fill="none" xmlns="http://www.w3.org/2000/svg">
<circle cx="19" cy="19" r="19" fill="#FF9430"/>
<path fill-rule="evenodd" clip-rule="evenodd" d="M23.519 12.6295H25.8271C27.3817 12.6295 28.642 13.8897 28.642 15.4443V22.9505C28.642 24.5051 27.3817 25.7653 25.8271 25.7653H12.6913C11.1368 25.7653 9.87653 24.5051 9.87653 22.9505V15.4443C9.87653 13.8897 11.1368 12.6295 12.6913 12.6295H14.9995L16.041 11.072C16.5628 10.2864 17.4435 9.81435 18.3866 9.8147H20.1318C21.075 9.81435 21.9556 10.2864 22.4775 11.072L23.519 12.6295ZM25.8271 23.8888C26.3453 23.8888 26.7654 23.4687 26.7654 22.9505V15.4443C26.7654 14.9261 26.3453 14.5061 25.8271 14.5061H23.0123C22.6985 14.5044 22.4062 14.346 22.2336 14.0838L20.9106 12.1135C20.738 11.8513 20.4457 11.6929 20.1318 11.6912H18.3867C18.0728 11.6929 17.7805 11.8513 17.6079 12.1135L16.2849 14.0838C16.1123 14.346 15.82 14.5044 15.5062 14.5061H12.6913C12.1731 14.5061 11.7531 14.9261 11.7531 15.4443V22.9505C11.7531 23.4687 12.1731 23.8888 12.6913 23.8888H25.8271ZM19.2592 15.4443C17.1865 15.4443 15.5062 17.1246 15.5062 19.1974C15.5062 21.2702 17.1865 22.9505 19.2592 22.9505C21.332 22.9505 23.0123 21.2702 23.0123 19.1974C23.0123 18.202 22.6169 17.2474 21.9131 16.5436C21.2092 15.8397 20.2546 15.4443 19.2592 15.4443ZM17.3827 19.1974C17.3827 20.2338 18.2229 21.074 19.2592 21.074C20.2956 21.074 21.1358 20.2338 21.1358 19.1974C21.1358 18.161 20.2956 17.3209 19.2592 17.3209C18.2229 17.3209 17.3827 18.161 17.3827 19.1974Z" fill="white"/>
</svg>
