<svg width="38" height="38" viewBox="0 0 38 38" fill="none" xmlns="http://www.w3.org/2000/svg">
<circle cx="19" cy="19" r="19" fill="#FF9430"/>
<path fill-rule="evenodd" clip-rule="evenodd" d="M23.1666 18.1667C23.1666 20.4679 21.3012 22.3334 19 22.3334C16.6988 22.3334 14.8333 20.4679 14.8333 18.1667V14.8334C14.8333 12.5322 16.6988 10.6667 19 10.6667C21.3012 10.6667 23.1666 12.5322 23.1666 14.8334V18.1667ZM19 12.3334C17.6193 12.3334 16.5 13.4527 16.5 14.8334V18.1667C16.5 19.5475 17.6193 20.6667 19 20.6667C20.3807 20.6667 21.5 19.5475 21.5 18.1667V14.8334C21.5 13.4527 20.3807 12.3334 19 12.3334ZM22.3333 26.5001C22.3333 26.9603 21.9602 27.3334 21.5 27.3334H16.5C16.0397 27.3334 15.6666 26.9603 15.6666 26.5001C15.6666 26.0398 16.0397 25.6667 16.5 25.6667H21.5C21.9602 25.6667 22.3333 26.0398 22.3333 26.5001ZM19 24.8334C22.6819 24.8334 25.6666 21.8486 25.6666 18.1667C25.6666 17.7065 25.2935 17.3334 24.8333 17.3334C24.3731 17.3334 24 17.7065 24 18.1667C24 20.9282 21.7614 23.1667 19 23.1667C16.2386 23.1667 14 20.9282 14 18.1667C14 17.7065 13.6269 17.3334 13.1666 17.3334C12.7064 17.3334 12.3333 17.7065 12.3333 18.1667C12.3333 21.8486 15.3181 24.8334 19 24.8334Z" fill="white"/>
</svg>
