<svg width="29" height="29" viewBox="0 0 29 29" fill="none" xmlns="http://www.w3.org/2000/svg">
<path d="M14.5 19.3333C16.502 19.3333 18.125 17.7103 18.125 15.7083C18.125 13.7063 16.502 12.0833 14.5 12.0833C12.498 12.0833 10.875 13.7063 10.875 15.7083C10.875 17.7103 12.498 19.3333 14.5 19.3333Z" stroke="white" stroke-width="2" stroke-linecap="round" stroke-linejoin="round"/>
<path d="M24.1667 8.45831H4.83333C4.16599 8.45831 3.625 8.9993 3.625 9.66665V21.75C3.625 22.4173 4.16599 22.9583 4.83333 22.9583H24.1667C24.834 22.9583 25.375 22.4173 25.375 21.75V9.66665C25.375 8.9993 24.834 8.45831 24.1667 8.45831Z" stroke="white" stroke-width="2" stroke-linecap="round" stroke-linejoin="round"/>
<path d="M17.254 4.83331H11.7458C11.2257 4.83331 10.764 5.16612 10.5995 5.65954L10.1967 6.86787C9.93591 7.6503 10.5183 8.45831 11.343 8.45831H17.6568C18.4815 8.45831 19.0639 7.6503 18.8031 6.86787L18.4003 5.65954C18.2358 5.16612 17.7741 4.83331 17.254 4.83331Z" stroke="white" stroke-width="2" stroke-linecap="round" stroke-linejoin="round"/>
</svg>
