<svg width="27" height="23" viewBox="0 0 27 23" fill="none" xmlns="http://www.w3.org/2000/svg">
<g filter="url(#filter0_d_158_435)">
<path d="M13.5871 14.2753C13.9135 14.275 14.2338 14.1864 14.5139 14.0188C14.7941 13.8513 15.0236 13.611 15.1783 13.3236C15.1856 13.3098 15.1892 13.2944 15.1887 13.2788C15.1883 13.2632 15.1838 13.248 15.1758 13.2347C15.1677 13.2213 15.1564 13.2103 15.1428 13.2026C15.1292 13.195 15.1139 13.191 15.0983 13.191H12.0764C12.0608 13.1909 12.0454 13.1949 12.0318 13.2026C12.0182 13.2102 12.0068 13.2212 11.9988 13.2346C11.9907 13.2479 11.9862 13.2632 11.9858 13.2787C11.9853 13.2943 11.9889 13.3098 11.9962 13.3236C12.1508 13.611 12.3804 13.8512 12.6604 14.0188C12.9405 14.1863 13.2608 14.2749 13.5871 14.2753Z" fill="white"/>
<path d="M17.7453 11.1424C17.7078 11.0972 17.6709 11.0521 17.6348 11.0085C17.1379 10.4074 16.8372 10.0446 16.8372 8.34298C16.8372 7.46202 16.6264 6.73918 16.211 6.19704C15.9047 5.79654 15.4907 5.49272 14.9449 5.26819C14.9379 5.26428 14.9316 5.25916 14.9264 5.25306C14.7301 4.59572 14.1929 4.15546 13.5871 4.15546C12.9813 4.15546 12.4443 4.59572 12.248 5.25238C12.2428 5.25826 12.2366 5.26322 12.2297 5.26706C10.9562 5.79135 10.3373 6.79723 10.3373 8.34231C10.3373 10.0446 10.037 10.4074 9.53964 11.0078C9.5035 11.0514 9.46668 11.0957 9.42918 11.1417C9.33232 11.2586 9.27095 11.4007 9.25234 11.5513C9.23372 11.7019 9.25864 11.8547 9.32414 11.9915C9.46352 12.2852 9.76056 12.4675 10.0996 12.4675H17.0771C17.4146 12.4675 17.7096 12.2854 17.8494 11.9931C17.9152 11.8562 17.9403 11.7033 17.9219 11.5525C17.9034 11.4017 17.8421 11.2594 17.7453 11.1424Z" fill="white"/>
<path d="M18.9007 4.34318C19.5311 4.87966 20.0119 5.62255 20.2877 6.48632C20.5635 7.35009 20.6232 8.29962 20.4598 9.22561L19.9241 9.12234C20.0664 8.3164 20.0144 7.48997 19.7744 6.73819C19.5343 5.98641 19.1158 5.33983 18.5672 4.8729L18.9007 4.34318Z" fill="white"/>
<path d="M19.2668 2.82515C19.8678 3.07618 20.4215 3.47802 20.888 4.00162C21.3544 4.52521 21.7219 5.15746 21.964 5.85266C22.206 6.54785 22.3165 7.28861 22.2874 8.02136C22.2583 8.75412 22.0904 9.46055 21.7958 10.0896L21.193 9.67164C21.44 9.14414 21.5808 8.55173 21.6052 7.93724C21.6296 7.32276 21.5369 6.70156 21.334 6.11857C21.131 5.53558 20.8228 5.00537 20.4316 4.56629C20.0405 4.12721 19.5761 3.79022 19.0721 3.5797L19.2668 2.82515Z" fill="white"/>
<path d="M6.91712 9.20688C6.60863 8.43872 6.52861 7.55745 6.68625 6.66452C6.8439 5.77159 7.23281 4.9033 7.80821 4.15961L8.23431 4.5002C7.73351 5.14747 7.39502 5.90318 7.25781 6.68034C7.1206 7.45751 7.19026 8.22453 7.45875 8.8931L6.91712 9.20688Z" fill="white"/>
<path d="M5.88673 10.3803C5.47154 9.87849 5.1683 9.26519 4.99895 8.58471C4.8296 7.90423 4.79838 7.17358 4.90753 6.4456C5.01668 5.71762 5.26348 5.0105 5.63008 4.37538C5.99669 3.74027 6.47393 3.19302 7.0273 2.77323L7.36654 3.42363C6.90248 3.77567 6.50227 4.23458 6.19483 4.76719C5.8874 5.2998 5.68043 5.89279 5.5889 6.50327C5.49737 7.11375 5.52356 7.72647 5.66557 8.29712C5.80759 8.86777 6.06188 9.38209 6.41006 9.80287L5.88673 10.3803Z" fill="white"/>
</g>
<defs>
<filter id="filter0_d_158_435" x="0.84375" y="2.77323" width="25.4482" height="19.502" filterUnits="userSpaceOnUse" color-interpolation-filters="sRGB">
<feFlood flood-opacity="0" result="BackgroundImageFix"/>
<feColorMatrix in="SourceAlpha" type="matrix" values="0 0 0 0 0 0 0 0 0 0 0 0 0 0 0 0 0 0 127 0" result="hardAlpha"/>
<feOffset dy="4"/>
<feGaussianBlur stdDeviation="2"/>
<feComposite in2="hardAlpha" operator="out"/>
<feColorMatrix type="matrix" values="0 0 0 0 0 0 0 0 0 0 0 0 0 0 0 0 0 0 0.25 0"/>
<feBlend mode="normal" in2="BackgroundImageFix" result="effect1_dropShadow_158_435"/>
<feBlend mode="normal" in="SourceGraphic" in2="effect1_dropShadow_158_435" result="shape"/>
</filter>
</defs>
</svg>
