<svg width="30" height="30" viewBox="0 0 30 30" fill="none" xmlns="http://www.w3.org/2000/svg">
<circle cx="15" cy="15" r="14" fill="white" stroke="#DADADA" stroke-width="2"/>
<path fill-rule="evenodd" clip-rule="evenodd" d="M13.1913 16.5C13.1847 16.5014 13.2557 16.5025 13.3856 16.5035L15.6 19.825L17.811 16.5084L18.0924 16.5101C19.9841 16.9417 21.9 17.8216 21.9 19.1453V20.7H9.30002V19.1453C9.30002 17.8216 11.2996 16.9316 13.1913 16.5ZM18.75 17.9C18.9835 18.1335 19.45 18.3666 19.45 18.3666C19.45 18.3666 19.2057 19.3 18.75 19.3C18.2943 19.3 18.05 18.3666 18.05 18.3666C18.05 18.3666 18.5166 18.1335 18.75 17.9Z" fill="#3BA4D0"/>
<path d="M16.125 16.5H15.075C14.9822 16.5 14.8932 16.5369 14.8275 16.6025C14.7619 16.6682 14.725 16.7572 14.725 16.85V17.3337C14.7251 17.3987 14.7432 17.4624 14.7774 17.5176C14.8115 17.5729 14.8604 17.6176 14.9186 17.6466L15.075 17.725L14.8804 18.775V20.35H16.3504V18.853L16.125 17.725L16.2815 17.6466C16.3396 17.6176 16.3885 17.5729 16.4227 17.5176C16.4569 17.4624 16.475 17.3987 16.475 17.3337V16.85C16.475 16.7572 16.4381 16.6682 16.3725 16.6025C16.3069 16.5369 16.2178 16.5 16.125 16.5Z" fill="#3BA4D0"/>
<path fill-rule="evenodd" clip-rule="evenodd" d="M13.2214 11.7776C13.274 11.7631 13.3292 11.761 13.3826 11.7716C13.4361 11.7821 13.4864 11.8051 13.5294 11.8385C13.8129 12.0586 14.4009 12.3001 15.6 12.3001C16.7988 12.3001 17.3871 12.0586 17.6706 11.8381C17.7137 11.8047 17.7641 11.7818 17.8176 11.7712C17.8712 11.7607 17.9264 11.7628 17.979 11.7774C18.0316 11.7921 18.08 11.8188 18.1204 11.8555C18.1608 11.8921 18.1921 11.9377 18.2117 11.9886C18.3758 12.4129 18.434 12.8707 18.3814 13.3225C18.3288 13.7743 18.1669 14.2065 17.9097 14.5816C17.6526 14.9568 17.3079 15.2637 16.9055 15.4757C16.5031 15.6877 16.0551 15.7986 15.6002 15.7986C15.1454 15.7986 14.6973 15.6877 14.2949 15.4757C13.8925 15.2637 13.5478 14.9568 13.2907 14.5816C13.0335 14.2065 12.8716 13.7743 12.819 13.3225C12.7664 12.8707 12.8246 12.4129 12.9887 11.9886C13.0083 11.9378 13.0396 11.8922 13.08 11.8555C13.1205 11.8189 13.1689 11.7922 13.2214 11.7776ZM13.5294 12.6477C13.4785 12.9488 13.4939 13.2574 13.5745 13.552C13.6551 13.8466 13.7989 14.1201 13.9961 14.3533C14.1932 14.5866 14.4388 14.7741 14.7159 14.9026C14.9929 15.0312 15.2946 15.0978 15.6 15.0978C15.9054 15.0978 16.2072 15.0312 16.4842 14.9026C16.7612 14.7741 17.0068 14.5866 17.204 14.3533C17.4011 14.1201 17.545 13.8466 17.6256 13.552C17.7062 13.2574 17.7216 12.9488 17.6706 12.6477C17.2037 12.8626 16.5401 13.0001 15.6 13.0001C14.6603 13.0001 13.9963 12.8622 13.5294 12.648V12.6477Z" fill="#FF9430"/>
<path fill-rule="evenodd" clip-rule="evenodd" d="M15.6 8.1001C15.6 8.1001 11.925 8.721 11.925 9.53405C11.925 10.618 12.5935 11.0751 12.5935 11.0751H18.6065C18.6065 11.0751 19.275 10.618 19.275 9.53405C19.275 8.721 15.6 8.1001 15.6 8.1001ZM18.7458 11.6001C18.7458 11.6001 18.9999 13.0001 15.6 13.0001C12.2001 13.0001 12.4542 11.6001 12.4542 11.6001H18.7458ZM15.6 10.2001C15.7393 10.2001 15.8728 10.1448 15.9712 10.0463C16.0697 9.94787 16.125 9.81434 16.125 9.6751C16.125 9.53586 16.0697 9.40232 15.9712 9.30387C15.8728 9.20541 15.7393 9.1501 15.6 9.1501C15.4608 9.1501 15.3272 9.20541 15.2288 9.30387C15.1303 9.40232 15.075 9.53586 15.075 9.6751C15.075 9.81434 15.1303 9.94787 15.2288 10.0463C15.3272 10.1448 15.4608 10.2001 15.6 10.2001Z" fill="#FF9430"/>
</svg>
