<svg width="15" height="15" viewBox="0 0 15 15" fill="none" xmlns="http://www.w3.org/2000/svg">
<path d="M8.35875 0.31512C8.12666 0.112755 7.81939 0 7.5 0C7.18061 0 6.87334 0.112755 6.64125 0.31512L0.586251 5.59282C0.400853 5.75463 0.253228 5.94964 0.152421 6.16591C0.0516138 6.38218 -0.000251965 6.61516 9.20315e-07 6.85057V13.2719C0.000332297 13.7303 0.198023 14.1699 0.549617 14.4939C0.901212 14.818 1.37794 15 1.875 15H3.75C4.24728 15 4.7242 14.8178 5.07583 14.4935C5.42746 14.1692 5.625 13.7294 5.625 13.2707V10.3886C5.625 10.2358 5.69085 10.0891 5.80806 9.98105C5.92527 9.87295 6.08424 9.81222 6.25 9.81222H8.75C8.91576 9.81222 9.07473 9.87295 9.19194 9.98105C9.30915 10.0891 9.375 10.2358 9.375 10.3886V13.2707C9.375 13.7294 9.57254 14.1692 9.92418 14.4935C10.2758 14.8178 10.7527 15 11.25 15H13.125C13.6223 15 14.0992 14.8178 14.4508 14.4935C14.8025 14.1692 15 13.7294 15 13.2707V6.84942C14.9999 6.61412 14.9478 6.38131 14.8468 6.16524C14.7457 5.94918 14.598 5.75439 14.4125 5.59282L8.35875 0.312815V0.31512Z" fill="#BDC0CC"/>
</svg>
