<svg width="14" height="13" viewBox="0 0 14 13" fill="none" xmlns="http://www.w3.org/2000/svg">
<path fill-rule="evenodd" clip-rule="evenodd" d="M3.38587 1.36841H10.6141C11.4696 1.36841 12.163 2.07575 12.163 2.9483V10.3211C12.163 11.1937 11.4696 11.901 10.6141 11.901H3.38587C2.53043 11.901 1.83696 11.1937 1.83696 10.3211V2.9483C1.83696 2.07575 2.53043 1.36841 3.38587 1.36841ZM3.38587 10.8478H10.6141C10.8139 10.8462 10.9949 10.7273 11.0788 10.5423L5.52854 6.30294L2.86957 9.46272V10.3211C2.86957 10.612 3.10073 10.8478 3.38587 10.8478ZM11.1304 9.26786L8.03261 6.87696L9.12718 5.76051L11.1304 7.41413V9.26786ZM9.38533 4.64405L11.1304 6.06595V2.9483C11.1304 2.65745 10.8993 2.42167 10.6141 2.42167H3.38587C3.10073 2.42167 2.86957 2.65745 2.86957 2.9483V7.84596L5.0587 5.23914C5.2357 5.02804 5.54302 4.99347 5.76087 5.16015L7.14973 6.26081L8.69865 4.68091C8.88506 4.49232 9.18054 4.47646 9.38533 4.64405Z" fill="white"/>
</svg>
