<svg width="30" height="31" viewBox="0 0 30 31" fill="none" xmlns="http://www.w3.org/2000/svg">
<ellipse cx="15" cy="15.3" rx="15" ry="15.3" fill="white"/>
<ellipse cx="15.1631" cy="15.1338" rx="12.5543" ry="12.8054" fill="#ECAC48"/>
<path fill-rule="evenodd" clip-rule="evenodd" d="M11.3859 9.36841H18.6141C19.4696 9.36841 20.163 10.0757 20.163 10.9483V18.3211C20.163 19.1937 19.4696 19.901 18.6141 19.901H11.3859C10.5304 19.901 9.83696 19.1937 9.83696 18.3211V10.9483C9.83696 10.0757 10.5304 9.36841 11.3859 9.36841ZM11.3859 18.8478H18.6141C18.8139 18.8462 18.9949 18.7273 19.0788 18.5423L13.5285 14.3029L10.8696 17.4627V18.3211C10.8696 18.612 11.1007 18.8478 11.3859 18.8478ZM19.1304 17.2679L16.0326 14.877L17.1272 13.7605L19.1304 15.4141V17.2679ZM17.3853 12.644L19.1304 14.066V10.9483C19.1304 10.6574 18.8993 10.4217 18.6141 10.4217H11.3859C11.1007 10.4217 10.8696 10.6574 10.8696 10.9483V15.846L13.0587 13.2391C13.2357 13.028 13.543 12.9935 13.7609 13.1601L15.1497 14.2608L16.6986 12.6809C16.8851 12.4923 17.1805 12.4765 17.3853 12.644Z" fill="white"/>
</svg>
