<svg width="23" height="23" viewBox="0 0 23 23" fill="none" xmlns="http://www.w3.org/2000/svg">
<path fill-rule="evenodd" clip-rule="evenodd" d="M11.5 1.91663C15.2049 1.91663 18.2083 4.92005 18.2083 8.62496C18.3425 11.6245 15.9371 15.6208 12.2763 20.6808C12.096 20.9297 11.8073 21.0771 11.5 21.0771C11.1927 21.0771 10.904 20.9297 10.7238 20.6808C7.06292 15.6112 4.6575 11.615 4.79167 8.62496C4.79167 4.92005 7.79509 1.91663 11.5 1.91663ZM11.5 18.5054C14.0588 14.8829 16.4258 11.0591 16.2917 8.71121V8.68246V8.62496C16.2917 5.97859 14.1464 3.83329 11.5 3.83329C8.85364 3.83329 6.70834 5.97859 6.70834 8.62496V8.68246C6.57417 11.0304 8.94126 14.8541 11.5 18.5054ZM11.5 5.74996C9.91219 5.74996 8.625 7.03714 8.625 8.62496C8.625 10.2128 9.91219 11.5 11.5 11.5C13.0878 11.5 14.375 10.2128 14.375 8.62496C14.375 7.86246 14.0721 7.13119 13.5329 6.59203C12.9938 6.05286 12.2625 5.74996 11.5 5.74996ZM10.5417 8.62496C10.5417 9.15423 10.9707 9.58329 11.5 9.58329C12.0293 9.58329 12.4583 9.15423 12.4583 8.62496C12.4583 8.09569 12.0293 7.66663 11.5 7.66663C10.9707 7.66663 10.5417 8.09569 10.5417 8.62496Z" fill="#231F20" fill-opacity="0.5"/>
</svg>
