<svg width="21" height="20" viewBox="0 0 21 20" fill="none" xmlns="http://www.w3.org/2000/svg">
<path d="M10.5441 6.36364C8.57162 6.36364 6.97402 7.99091 6.97402 10C6.97402 12.0091 8.57162 13.6364 10.5441 13.6364C12.5165 13.6364 14.1141 12.0091 14.1141 10C14.1141 7.99091 12.5165 6.36364 10.5441 6.36364ZM18.5231 9.09091C18.321 7.24738 17.5094 5.52867 16.2216 4.21699C14.9339 2.90532 13.2465 2.07865 11.4366 1.87273V0H9.65156V1.87273C7.84165 2.07865 6.15428 2.90532 4.86653 4.21699C3.57877 5.52867 2.76718 7.24738 2.56501 9.09091H0.72644V10.9091H2.56501C2.76718 12.7526 3.57877 14.4713 4.86653 15.783C6.15428 17.0947 7.84165 17.9214 9.65156 18.1273V20H11.4366V18.1273C13.2465 17.9214 14.9339 17.0947 16.2216 15.783C17.5094 14.4713 18.321 12.7526 18.5231 10.9091H20.3617V9.09091H18.5231ZM10.5441 16.3636C7.09005 16.3636 4.29649 13.5182 4.29649 10C4.29649 6.48182 7.09005 3.63636 10.5441 3.63636C13.9981 3.63636 16.7917 6.48182 16.7917 10C16.7917 13.5182 13.9981 16.3636 10.5441 16.3636Z" fill="#3BA4D0"/>
</svg>
