<svg width="29" height="29" viewBox="0 0 29 29" fill="none" xmlns="http://www.w3.org/2000/svg">
<path d="M14.4999 13.2917C15.8346 13.2917 16.9166 12.2097 16.9166 10.875C16.9166 9.54032 15.8346 8.45834 14.4999 8.45834C13.1652 8.45834 12.0833 9.54032 12.0833 10.875C12.0833 12.2097 13.1652 13.2917 14.4999 13.2917Z" stroke="#010101" stroke-width="2" stroke-linecap="round" stroke-linejoin="round"/>
<path d="M14.5001 25.375C14.5001 25.375 22.9584 19.5192 22.9584 11.9904C22.9584 9.77175 22.0673 7.64398 20.481 6.07516C18.8948 4.50635 16.7434 3.625 14.5001 3.625C12.2568 3.625 10.1054 4.50635 8.51914 6.07516C6.93289 7.64398 6.04175 9.77175 6.04175 11.9904C6.04175 19.5192 14.5001 25.375 14.5001 25.375Z" stroke="#010101" stroke-width="2" stroke-linecap="round" stroke-linejoin="round"/>
</svg>
