<svg width="15" height="15" viewBox="0 0 15 15" fill="none" xmlns="http://www.w3.org/2000/svg">
<path d="M5 0H1.66667C1.22464 0 0.800716 0.175595 0.488155 0.488155C0.175595 0.800716 0 1.22464 0 1.66667V5C0 5.44203 0.175595 5.86595 0.488155 6.17851C0.800716 6.49107 1.22464 6.66667 1.66667 6.66667H5C5.44203 6.66667 5.86595 6.49107 6.17851 6.17851C6.49107 5.86595 6.66667 5.44203 6.66667 5V1.66667C6.66667 1.22464 6.49107 0.800716 6.17851 0.488155C5.86595 0.175595 5.44203 0 5 0ZM1.66667 5V1.66667H5V5H1.66667ZM13.3333 0H10C9.55797 0 9.13405 0.175595 8.82149 0.488155C8.50893 0.800716 8.33333 1.22464 8.33333 1.66667V5C8.33333 5.44203 8.50893 5.86595 8.82149 6.17851C9.13405 6.49107 9.55797 6.66667 10 6.66667H13.3333C13.7754 6.66667 14.1993 6.49107 14.5118 6.17851C14.8244 5.86595 15 5.44203 15 5V1.66667C15 1.22464 14.8244 0.800716 14.5118 0.488155C14.1993 0.175595 13.7754 0 13.3333 0ZM10 5V1.66667H13.3333V5H10ZM5 8.33333H1.66667C1.22464 8.33333 0.800716 8.50893 0.488155 8.82149C0.175595 9.13405 0 9.55797 0 10V13.3333C0 13.7754 0.175595 14.1993 0.488155 14.5118C0.800716 14.8244 1.22464 15 1.66667 15H5C5.44203 15 5.86595 14.8244 6.17851 14.5118C6.49107 14.1993 6.66667 13.7754 6.66667 13.3333V10C6.66667 9.55797 6.49107 9.13405 6.17851 8.82149C5.86595 8.50893 5.44203 8.33333 5 8.33333ZM1.66667 13.3333V10H5V13.3333H1.66667ZM13.3333 8.33333H10C9.55797 8.33333 9.13405 8.50893 8.82149 8.82149C8.50893 9.13405 8.33333 9.55797 8.33333 10V13.3333C8.33333 13.7754 8.50893 14.1993 8.82149 14.5118C9.13405 14.8244 9.55797 15 10 15H13.3333C13.7754 15 14.1993 14.8244 14.5118 14.5118C14.8244 14.1993 15 13.7754 15 13.3333V10C15 9.55797 14.8244 9.13405 14.5118 8.82149C14.1993 8.50893 13.7754 8.33333 13.3333 8.33333ZM10 13.3333V10H13.3333V13.3333H10Z" fill="#3BA4D0"/>
</svg>
