<svg width="73" height="73" viewBox="0 0 73 73" fill="none" xmlns="http://www.w3.org/2000/svg">
<path fill-rule="evenodd" clip-rule="evenodd" d="M51.5451 33.491C51.5451 41.8001 44.8092 48.5359 36.5001 48.5359C28.191 48.5359 21.4552 41.8001 21.4552 33.491V21.455C21.4552 13.1459 28.191 6.4101 36.5001 6.4101C44.8092 6.4101 51.5451 13.1459 51.5451 21.455V33.491ZM36.5001 12.4281C31.5147 12.4281 27.4732 16.4696 27.4732 21.455V33.491C27.4732 38.4764 31.5147 42.5179 36.5001 42.5179C41.4856 42.5179 45.5271 38.4764 45.5271 33.491V21.455C45.5271 16.4696 41.4856 12.4281 36.5001 12.4281ZM48.5361 63.5808C48.5361 65.2427 47.1889 66.5898 45.5271 66.5898H27.4732C25.8113 66.5898 24.4642 65.2427 24.4642 63.5808C24.4642 61.919 25.8113 60.5719 27.4732 60.5719H45.5271C47.1889 60.5719 48.5361 61.919 48.5361 63.5808ZM36.5001 57.5629C49.7947 57.5629 60.572 46.7855 60.572 33.491C60.572 31.8292 59.2248 30.482 57.563 30.482C55.9012 30.482 54.554 31.8292 54.554 33.491C54.554 43.4619 46.471 51.5449 36.5001 51.5449C26.5292 51.5449 18.4462 43.4619 18.4462 33.491C18.4462 31.8292 17.099 30.482 15.4372 30.482C13.7754 30.482 12.4282 31.8292 12.4282 33.491C12.4282 46.7855 23.2056 57.5629 36.5001 57.5629Z" fill="white"/>
</svg>
