<svg width="20" height="20" viewBox="0 0 20 20" fill="none" xmlns="http://www.w3.org/2000/svg">
<path fill-rule="evenodd" clip-rule="evenodd" d="M14.1666 9.16667C14.1666 11.4679 12.3012 13.3333 9.99998 13.3333C7.69879 13.3333 5.83331 11.4679 5.83331 9.16667V5.83333C5.83331 3.53215 7.69879 1.66667 9.99998 1.66667C12.3012 1.66667 14.1666 3.53215 14.1666 5.83333V9.16667ZM9.99998 3.33333C8.61927 3.33333 7.49998 4.45262 7.49998 5.83333V9.16667C7.49998 10.5474 8.61927 11.6667 9.99998 11.6667C11.3807 11.6667 12.5 10.5474 12.5 9.16667V5.83333C12.5 4.45262 11.3807 3.33333 9.99998 3.33333ZM13.3333 17.5C13.3333 17.9602 12.9602 18.3333 12.5 18.3333H7.49998C7.03974 18.3333 6.66665 17.9602 6.66665 17.5C6.66665 17.0398 7.03974 16.6667 7.49998 16.6667H12.5C12.9602 16.6667 13.3333 17.0398 13.3333 17.5ZM9.99998 15.8333C13.6819 15.8333 16.6666 12.8486 16.6666 9.16667C16.6666 8.70643 16.2935 8.33333 15.8333 8.33333C15.3731 8.33333 15 8.70643 15 9.16667C15 11.9281 12.7614 14.1667 9.99998 14.1667C7.23856 14.1667 4.99998 11.9281 4.99998 9.16667C4.99998 8.70643 4.62688 8.33333 4.16665 8.33333C3.70641 8.33333 3.33331 8.70643 3.33331 9.16667C3.33331 12.8486 6.31808 15.8333 9.99998 15.8333Z" fill="#BDC0CC"/>
</svg>
