<svg width="39" height="39" viewBox="0 0 39 39" fill="none" xmlns="http://www.w3.org/2000/svg">
<g clip-path="url(#clip0_695_5104)">
<path d="M12.7759 11.5745L13.6833 11.154L12.7759 11.5745ZM14.2431 10.0176L13.8772 10.9483L14.2431 10.0176ZM16.487 20.1304L17.4651 20.3384L17.4651 20.3384L16.487 20.1304ZM16.4054 19.4062L15.4981 19.8267L16.4054 19.4062ZM16.4683 29.7647L15.9044 28.9389L16.4683 29.7647ZM14.6915 28.5734L13.7133 28.3654L14.6915 28.5734ZM32.2083 19.017L31.6444 18.1911L32.2083 19.017ZM31.9802 16.993L31.6142 17.9236L31.9802 16.993ZM31.6444 18.1911L15.9044 28.9389L17.0322 30.5905L32.7722 19.8428L31.6444 18.1911ZM15.6696 28.7814L17.4651 20.3384L15.5088 19.9224L13.7133 28.3654L15.6696 28.7814ZM17.3127 18.9857L13.6833 11.154L11.8686 11.9949L15.4981 19.8267L17.3127 18.9857ZM13.8772 10.9483L31.6142 17.9236L32.3462 16.0624L14.6091 9.08701L13.8772 10.9483ZM13.6833 11.154C13.6626 11.1094 13.6642 11.0824 13.6674 11.0652C13.6718 11.0422 13.6848 11.0128 13.7106 10.9855C13.7363 10.9582 13.7649 10.9434 13.7875 10.9377C13.8046 10.9334 13.8314 10.9303 13.8772 10.9483L14.6091 9.08701C12.8021 8.37638 11.0522 10.2332 11.8686 11.9949L13.6833 11.154ZM17.4651 20.3384C17.562 19.8829 17.5085 19.4083 17.3127 18.9857L15.4981 19.8267C15.5119 19.8566 15.5157 19.8902 15.5088 19.9224L17.4651 20.3384ZM15.9044 28.9389C15.8638 28.9666 15.837 28.9695 15.8194 28.9691C15.796 28.9686 15.7649 28.9605 15.7337 28.9396C15.7026 28.9187 15.6833 28.893 15.6739 28.8716C15.6669 28.8554 15.6594 28.8295 15.6696 28.7814L13.7133 28.3654C13.3095 30.2646 15.4287 31.6855 17.0322 30.5905L15.9044 28.9389ZM32.7722 19.8428C34.1991 18.8685 33.9541 16.6948 32.3462 16.0624L31.6142 17.9236C31.728 17.9684 31.7453 18.1222 31.6444 18.1911L32.7722 19.8428Z" fill="black"/>
</g>
<line x1="17.127" y1="18.9319" x2="32.1066" y2="18.9319" stroke="black"/>
<defs>
<clipPath id="clip0_695_5104">
<rect width="27.6548" height="27.6548" fill="white" transform="translate(38.8638 17.2422) rotate(128.571)"/>
</clipPath>
</defs>
</svg>
