<svg width="29" height="26" viewBox="0 0 29 26" fill="none" xmlns="http://www.w3.org/2000/svg">
<rect width="26" height="26" transform="translate(2.16669)" fill="white"/>
<path d="M5.41669 18.4167L11.0825 11.8065C11.5188 11.2975 12.3081 11.303 12.7373 11.818L16.5739 16.422C16.9817 16.9114 17.7217 16.9449 18.1722 16.4945L19.7275 14.9392C20.1841 14.4826 20.9361 14.5243 21.3395 15.0285L24.9167 19.5" stroke="#3BA4D0" stroke-width="2" stroke-linecap="round" stroke-linejoin="round"/>
<path d="M23.8334 3.25H6.50002C5.90171 3.25 5.41669 3.73503 5.41669 4.33333V21.6667C5.41669 22.265 5.90171 22.75 6.50002 22.75H23.8334C24.4317 22.75 24.9167 22.265 24.9167 21.6667V4.33333C24.9167 3.73502 24.4317 3.25 23.8334 3.25Z" stroke="#3BA4D0" stroke-width="2" stroke-linecap="round" stroke-linejoin="round"/>
<path d="M17.3334 8.66665C17.3334 8.06834 17.8184 7.58331 18.4167 7.58331C19.015 7.58331 19.5 8.06834 19.5 8.66665C19.5 9.26496 19.015 9.74998 18.4167 9.74998C17.8184 9.74998 17.3334 9.26496 17.3334 8.66665Z" stroke="#3BA4D0" stroke-width="2" stroke-linecap="round" stroke-linejoin="round"/>
<circle cx="5.95833" cy="5.95833" r="5.95833" fill="#3BA4D0"/>
<path d="M7.394 5.935H6.071V7.293H5.147V5.935H3.824V5.081H5.147V3.723H6.071V5.081H7.394V5.935Z" fill="white"/>
</svg>
