<svg width="13" height="13" viewBox="0 0 13 13" fill="none" xmlns="http://www.w3.org/2000/svg">
<path d="M11.9167 6.49992C11.9167 6.79907 11.6741 7.04159 11.375 7.04159H7.04166V11.3749C7.04166 11.6741 6.79915 11.9166 6.5 11.9166C6.20084 11.9166 5.95833 11.6741 5.95833 11.3749V7.04159H1.62499C1.32584 7.04159 1.08333 6.79907 1.08333 6.49992C1.08333 6.20076 1.32584 5.95825 1.62499 5.95825H5.95833V1.62492C5.95833 1.32576 6.20084 1.08325 6.5 1.08325C6.79915 1.08325 7.04166 1.32576 7.04166 1.62492V5.95825H11.375C11.6741 5.95825 11.9167 6.20076 11.9167 6.49992Z" fill="white"/>
</svg>
