<svg width="20" height="20" viewBox="0 0 20 20" fill="none" xmlns="http://www.w3.org/2000/svg">
<circle cx="10" cy="10" r="9" fill="white" stroke="#FF0000" stroke-width="2"/>
<path d="M9.17572 9.18023H11.0477V15.6362H9.17572V9.18023ZM10.1117 8.28023C9.76772 8.28023 9.48772 8.18023 9.27172 7.98023C9.05572 7.78023 8.94772 7.53223 8.94772 7.23623C8.94772 6.94023 9.05572 6.69223 9.27172 6.49223C9.48772 6.29223 9.76772 6.19223 10.1117 6.19223C10.4557 6.19223 10.7357 6.28823 10.9517 6.48023C11.1677 6.67223 11.2757 6.91223 11.2757 7.20023C11.2757 7.51223 11.1677 7.77223 10.9517 7.98023C10.7357 8.18023 10.4557 8.28023 10.1117 8.28023Z" fill="#FF0000"/>
</svg>
