<svg width="19" height="19" viewBox="0 0 19 19" fill="none" xmlns="http://www.w3.org/2000/svg">
<path d="M2 5.75V3.875C2 3.37772 2.19754 2.90081 2.54917 2.54917C2.90081 2.19754 3.37772 2 3.875 2H5.75" stroke="white" stroke-width="2.5" stroke-linecap="round" stroke-linejoin="round"/>
<path d="M2 13.25V15.125C2 15.6223 2.19754 16.0992 2.54917 16.4508C2.90081 16.8025 3.37772 17 3.875 17H5.75" stroke="white" stroke-width="2.5" stroke-linecap="round" stroke-linejoin="round"/>
<path d="M13.25 2H15.125C15.6223 2 16.0992 2.19754 16.4508 2.54917C16.8025 2.90081 17 3.37772 17 3.875V5.75" stroke="white" stroke-width="2.5" stroke-linecap="round" stroke-linejoin="round"/>
<path d="M13.25 17H15.125C15.6223 17 16.0992 16.8025 16.4508 16.4508C16.8025 16.0992 17 15.6223 17 15.125V13.25" stroke="white" stroke-width="2.5" stroke-linecap="round" stroke-linejoin="round"/>
<path d="M9.5 12.3125C11.0533 12.3125 12.3125 11.0533 12.3125 9.5C12.3125 7.9467 11.0533 6.6875 9.5 6.6875C7.9467 6.6875 6.6875 7.9467 6.6875 9.5C6.6875 11.0533 7.9467 12.3125 9.5 12.3125Z" stroke="white" stroke-width="2.5" stroke-linecap="round" stroke-linejoin="round"/>
</svg>
