<svg width="30" height="31" viewBox="0 0 30 31" fill="none" xmlns="http://www.w3.org/2000/svg">
<ellipse cx="15" cy="15.3" rx="15" ry="15.3" fill="white"/>
<circle cx="15" cy="15.6001" r="12" fill="#01CD88"/>
<path fill-rule="evenodd" clip-rule="evenodd" d="M9.16667 10.9167V13.2501C9.16667 13.5722 9.42784 13.8334 9.75001 13.8334C10.0722 13.8334 10.3333 13.5722 10.3333 13.2501V10.9167C10.3333 10.5946 10.5945 10.3334 10.9167 10.3334H13.25C13.5722 10.3334 13.8333 10.0722 13.8333 9.75008C13.8333 9.42792 13.5722 9.16675 13.25 9.16675H10.9167C9.95017 9.16675 9.16667 9.95025 9.16667 10.9167ZM16.75 9.16675H19.0833C20.0498 9.16675 20.8333 9.95025 20.8333 10.9167V13.2501C20.8333 13.5722 20.5722 13.8334 20.25 13.8334C19.9278 13.8334 19.6667 13.5722 19.6667 13.2501V10.9167C19.6667 10.5946 19.4055 10.3334 19.0833 10.3334H16.75C16.4278 10.3334 16.1667 10.0722 16.1667 9.75008C16.1667 9.42792 16.4278 9.16675 16.75 9.16675ZM20.25 16.1667C19.9278 16.1667 19.6667 16.4279 19.6667 16.7501V19.0834C19.6667 19.4056 19.4055 19.6667 19.0833 19.6667H16.75C16.4278 19.6667 16.1667 19.9279 16.1667 20.2501C16.1667 20.5722 16.4278 20.8334 16.75 20.8334H19.0833C20.0498 20.8334 20.8333 20.0499 20.8333 19.0834V16.7501C20.8333 16.4279 20.5722 16.1667 20.25 16.1667ZM10.9167 19.6667H13.25C13.5722 19.6667 13.8333 19.9279 13.8333 20.2501C13.8333 20.5722 13.5722 20.8334 13.25 20.8334H10.9167C9.95017 20.8334 9.16667 20.0499 9.16667 19.0834V16.7501C9.16667 16.4279 9.42784 16.1667 9.75001 16.1667C10.0722 16.1667 10.3333 16.4279 10.3333 16.7501V19.0834C10.3333 19.4056 10.5945 19.6667 10.9167 19.6667ZM12.6667 11.5001H17.3333C17.9777 11.5001 18.5 12.0224 18.5 12.6667V17.3334C18.5 17.9777 17.9777 18.5001 17.3333 18.5001H12.6667C12.0223 18.5001 11.5 17.9777 11.5 17.3334V12.6667C11.5 12.0224 12.0223 11.5001 12.6667 11.5001ZM12.6667 12.6667H17.3333V17.3334H12.6667V12.6667Z" fill="white"/>
</svg>
