<svg width="14" height="14" viewBox="0 0 14 14" fill="none" xmlns="http://www.w3.org/2000/svg">
<path fill-rule="evenodd" clip-rule="evenodd" d="M1.16667 2.91663V5.24996C1.16667 5.57212 1.42784 5.83329 1.75 5.83329C2.07217 5.83329 2.33333 5.57212 2.33333 5.24996V2.91663C2.33333 2.59446 2.5945 2.33329 2.91667 2.33329H5.25C5.57217 2.33329 5.83333 2.07213 5.83333 1.74996C5.83333 1.42779 5.57217 1.16663 5.25 1.16663H2.91667C1.95017 1.16663 1.16667 1.95013 1.16667 2.91663ZM8.75 1.16663H11.0833C12.0498 1.16663 12.8333 1.95013 12.8333 2.91663V5.24996C12.8333 5.57212 12.5722 5.83329 12.25 5.83329C11.9278 5.83329 11.6667 5.57212 11.6667 5.24996V2.91663C11.6667 2.59446 11.4055 2.33329 11.0833 2.33329H8.75C8.42784 2.33329 8.16667 2.07213 8.16667 1.74996C8.16667 1.42779 8.42784 1.16663 8.75 1.16663ZM12.25 8.16663C11.9278 8.16663 11.6667 8.42779 11.6667 8.74996V11.0833C11.6667 11.4055 11.4055 11.6666 11.0833 11.6666H8.75C8.42784 11.6666 8.16667 11.9278 8.16667 12.25C8.16667 12.5721 8.42784 12.8333 8.75 12.8333H11.0833C12.0498 12.8333 12.8333 12.0498 12.8333 11.0833V8.74996C12.8333 8.42779 12.5722 8.16663 12.25 8.16663ZM2.91667 11.6666H5.25C5.57217 11.6666 5.83333 11.9278 5.83333 12.25C5.83333 12.5721 5.57217 12.8333 5.25 12.8333H2.91667C1.95017 12.8333 1.16667 12.0498 1.16667 11.0833V8.74996C1.16667 8.42779 1.42784 8.16663 1.75 8.16663C2.07217 8.16663 2.33333 8.42779 2.33333 8.74996V11.0833C2.33333 11.4055 2.5945 11.6666 2.91667 11.6666ZM4.66667 3.49996H9.33333C9.97767 3.49996 10.5 4.02229 10.5 4.66663V9.33329C10.5 9.97762 9.97767 10.5 9.33333 10.5H4.66667C4.02234 10.5 3.5 9.97762 3.5 9.33329V4.66663C3.5 4.02229 4.02234 3.49996 4.66667 3.49996ZM4.66667 4.66663H9.33333V9.33329H4.66667V4.66663Z" fill="white"/>
</svg>
