<svg width="18" height="18" viewBox="0 0 18 18" fill="none" xmlns="http://www.w3.org/2000/svg">
<path fill-rule="evenodd" clip-rule="evenodd" d="M12.2325 11.175L16.2825 15.2175C16.4245 15.3583 16.5043 15.55 16.5043 15.75C16.5043 15.95 16.4245 16.1417 16.2825 16.2825C16.1417 16.4245 15.95 16.5043 15.75 16.5043C15.55 16.5043 15.3583 16.4245 15.2175 16.2825L11.175 12.2325C10.1268 13.0552 8.83249 13.5017 7.5 13.5C4.18629 13.5 1.5 10.8137 1.5 7.5C1.5 4.18629 4.18629 1.5 7.5 1.5C10.8137 1.5 13.5 4.18629 13.5 7.5C13.5017 8.83249 13.0552 10.1268 12.2325 11.175ZM7.5 3C5.01472 3 3 5.01472 3 7.5C3 9.98528 5.01472 12 7.5 12C9.98528 12 12 9.98528 12 7.5C12 5.01472 9.98528 3 7.5 3Z" fill="#A6A6A6"/>
</svg>
