<svg width="21" height="21" viewBox="0 0 21 21" fill="none" xmlns="http://www.w3.org/2000/svg">
<path fill-rule="evenodd" clip-rule="evenodd" d="M7.48913 13.125C7.48081 13.1268 7.56963 13.1281 7.73194 13.1294L10.5 17.2813L13.2637 13.1355L13.6154 13.1377C15.9801 13.6771 18.375 14.777 18.375 16.4316V18.375H2.625V16.4316C2.625 14.777 5.12444 13.6644 7.48913 13.125ZM14.4375 14.875C14.7293 15.1668 15.3125 15.4582 15.3125 15.4582C15.3125 15.4582 15.0071 16.625 14.4375 16.625C13.8679 16.625 13.5625 15.4582 13.5625 15.4582C13.5625 15.4582 14.1457 15.1668 14.4375 14.875Z" fill="black"/>
<path d="M11.1563 13.125H9.84375C9.72772 13.125 9.61644 13.1711 9.53439 13.2531C9.45234 13.3352 9.40625 13.4465 9.40625 13.5625V14.1671C9.40629 14.2484 9.42895 14.328 9.47168 14.397C9.51441 14.4661 9.57553 14.5219 9.64819 14.5583L9.84375 14.6562L9.6005 15.9688V17.9375H11.438V16.0663L11.1563 14.6562L11.3518 14.5583C11.4245 14.5219 11.4856 14.4661 11.5283 14.397C11.5711 14.328 11.5937 14.2484 11.5938 14.1671V13.5625C11.5938 13.4465 11.5477 13.3352 11.4656 13.2531C11.3836 13.1711 11.2723 13.125 11.1563 13.125Z" fill="black"/>
<path fill-rule="evenodd" clip-rule="evenodd" d="M7.52678 7.2218C7.59245 7.20363 7.66145 7.20105 7.72829 7.21427C7.79513 7.22749 7.85796 7.25613 7.91178 7.29792C8.26615 7.57311 9.00115 7.87499 10.5 7.87499C11.9985 7.87499 12.7339 7.57311 13.0883 7.29749C13.1422 7.25567 13.2051 7.22703 13.272 7.21386C13.3389 7.20069 13.408 7.20335 13.4737 7.22163C13.5394 7.23991 13.6 7.2733 13.6505 7.31913C13.701 7.36497 13.7401 7.42198 13.7646 7.48561C13.9697 8.0159 14.0425 8.58817 13.9767 9.15292C13.911 9.71766 13.7086 10.2579 13.3871 10.7268C13.0657 11.1958 12.6348 11.5794 12.1318 11.8445C11.6288 12.1095 11.0688 12.248 10.5002 12.248C9.93168 12.248 9.37168 12.1095 8.86867 11.8445C8.36566 11.5794 7.9348 11.1958 7.61334 10.7268C7.29189 10.2579 7.08952 9.71766 7.02375 9.15292C6.95797 8.58817 7.03077 8.0159 7.23584 7.48561C7.26042 7.42201 7.29953 7.36503 7.35004 7.31923C7.40056 7.27342 7.46108 7.24006 7.52678 7.2218ZM7.91178 8.30942C7.84812 8.68584 7.86733 9.07161 7.96808 9.43984C8.06882 9.80807 8.24867 10.1499 8.49508 10.4415C8.7415 10.7331 9.04855 10.9674 9.39482 11.1281C9.7411 11.2889 10.1183 11.3721 10.5 11.3721C10.8818 11.3721 11.259 11.2889 11.6052 11.1281C11.9515 10.9674 12.2586 10.7331 12.505 10.4415C12.7514 10.1499 12.9312 9.80807 13.032 9.43984C13.1327 9.07161 13.1519 8.68584 13.0883 8.30942C12.5046 8.57805 11.6751 8.74999 10.5 8.74999C9.32534 8.74999 8.4954 8.57761 7.91178 8.30986V8.30942Z" fill="black"/>
<path fill-rule="evenodd" clip-rule="evenodd" d="M10.5 2.625C10.5 2.625 5.90625 3.40112 5.90625 4.41744C5.90625 5.77237 6.74187 6.34375 6.74187 6.34375H14.2581C14.2581 6.34375 15.0937 5.77237 15.0937 4.41744C15.0937 3.40112 10.5 2.625 10.5 2.625ZM14.4322 7C14.4322 7 14.7499 8.75 10.5 8.75C6.25013 8.75 6.56775 7 6.56775 7H14.4322ZM10.5 5.25C10.674 5.25 10.841 5.18086 10.964 5.05779C11.0871 4.93472 11.1562 4.7678 11.1562 4.59375C11.1562 4.4197 11.0871 4.25278 10.964 4.12971C10.841 4.00664 10.674 3.9375 10.5 3.9375C10.326 3.9375 10.159 4.00664 10.036 4.12971C9.91289 4.25278 9.84375 4.4197 9.84375 4.59375C9.84375 4.7678 9.91289 4.93472 10.036 5.05779C10.159 5.18086 10.326 5.25 10.5 5.25Z" fill="black"/>
</svg>
