<svg width="23" height="22" viewBox="0 0 23 22" fill="none" xmlns="http://www.w3.org/2000/svg">
<path d="M11.4004 14.9845C13.6714 14.9845 15.5125 13.184 15.5125 10.963C15.5125 8.74202 13.6714 6.94153 11.4004 6.94153C9.12928 6.94153 7.28821 8.74202 7.28821 10.963C7.28821 13.184 9.12928 14.9845 11.4004 14.9845Z" stroke="black" stroke-width="2" stroke-linecap="round" stroke-linejoin="round"/>
<path d="M18.7684 6.88127L18.7008 6.7668C18.5143 6.4511 18.4191 6.09175 18.4254 5.72721L18.4562 3.93882C18.4624 3.57334 18.2654 3.23332 17.9416 3.05081L15.1282 1.46533C14.8051 1.28329 14.4066 1.28655 14.0867 1.47386L12.5251 2.38833C12.2059 2.57523 11.8408 2.67395 11.4688 2.67395H11.3334C10.9606 2.67395 10.5948 2.5748 10.2751 2.38713L8.70629 1.46604C8.38529 1.27758 7.98491 1.27468 7.6611 1.45847L4.85663 3.05028C4.53435 3.2332 4.33851 3.57236 4.34478 3.93673L4.37558 5.72721C4.38186 6.09175 4.28666 6.4511 4.10018 6.7668L4.03348 6.87973C3.8469 7.19561 3.57597 7.4559 3.2497 7.63272L1.65122 8.49902C1.32359 8.67658 1.12064 9.01436 1.12149 9.38068L1.12885 12.5494C1.1297 12.9135 1.33177 13.2487 1.65711 13.4257L3.24792 14.2912C3.5753 14.4693 3.8467 14.7315 4.0328 15.0495L4.10427 15.1716C4.28812 15.4857 4.38187 15.8425 4.37562 16.2044L4.34485 17.9871C4.33854 18.3526 4.53559 18.6926 4.85946 18.8751L7.67282 20.4606C7.99585 20.6427 8.39436 20.6394 8.71423 20.4521L10.2759 19.5376C10.5951 19.3507 10.9601 19.252 11.3322 19.252H11.4675C11.8404 19.252 12.2062 19.3511 12.5258 19.5388L14.0947 20.4599C14.4157 20.6484 14.8161 20.6513 15.1399 20.4675L17.9443 18.8757C18.2666 18.6927 18.4625 18.3536 18.4562 17.9892L18.4254 16.1987C18.4191 15.8342 18.5143 15.4749 18.7008 15.1591L18.7675 15.0462C18.9541 14.7303 19.225 14.47 19.5513 14.2932L21.1498 13.4269C21.4774 13.2494 21.6803 12.9116 21.6795 12.5453L21.6721 9.3765C21.6713 9.0124 21.4692 8.67721 21.1439 8.5002L19.5492 7.63266C19.2243 7.45586 18.9544 7.19618 18.7684 6.88127Z" stroke="black" stroke-width="2" stroke-linecap="round" stroke-linejoin="round"/>
</svg>
