<svg width="15" height="15" viewBox="0 0 15 15" fill="none" xmlns="http://www.w3.org/2000/svg">
<path d="M10.8333 7.85714C8.53333 7.85714 6.66667 9.45714 6.66667 11.4286C6.66667 13.4 8.53333 15 10.8333 15C13.1333 15 15 13.4 15 11.4286C15 9.45714 13.1333 7.85714 10.8333 7.85714ZM12.2083 13.1071L10.4167 11.5714V9.28571H11.25V11.2786L12.7917 12.6L12.2083 13.1071ZM11.6667 1.42857H9.01667C8.66667 0.6 7.75 0 6.66667 0C5.58333 0 4.66667 0.6 4.31667 1.42857H1.66667C0.75 1.42857 0 2.07143 0 2.85714V13.5714C0 14.3571 0.75 15 1.66667 15H6.75833C6.26531 14.5898 5.86423 14.1056 5.575 13.5714H1.66667V2.85714H3.33333V5H10V2.85714H11.6667V6.48571C12.2583 6.55714 12.8167 6.70714 13.3333 6.91429V2.85714C13.3333 2.07143 12.5833 1.42857 11.6667 1.42857ZM6.66667 2.85714C6.20833 2.85714 5.83333 2.53571 5.83333 2.14286C5.83333 1.75 6.20833 1.42857 6.66667 1.42857C7.125 1.42857 7.5 1.75 7.5 2.14286C7.5 2.53571 7.125 2.85714 6.66667 2.85714Z" fill="#BDC0CC"/>
</svg>
