<svg width="28" height="28" viewBox="0 0 28 28" fill="none" xmlns="http://www.w3.org/2000/svg">
<rect width="28" height="28" fill="white"/>
<path d="M16.3333 11.6667L16.3333 19.8334" stroke="#3BA4D0" stroke-width="2" stroke-linecap="round" stroke-linejoin="round"/>
<path d="M11.6667 11.6667L11.6667 19.8334" stroke="#3BA4D0" stroke-width="2" stroke-linecap="round" stroke-linejoin="round"/>
<path d="M7 7V6C6.44772 6 6 6.44772 6 7H7ZM21 7H22C22 6.44772 21.5523 6 21 6V7ZM7 8H21V6H7V8ZM20 7V23.3333H22V7H20ZM19.8333 23.5H8.16667V25.5H19.8333V23.5ZM8 23.3333V7H6V23.3333H8ZM8.16667 23.5C8.07462 23.5 8 23.4254 8 23.3333H6C6 24.5299 6.97005 25.5 8.16667 25.5V23.5ZM20 23.3333C20 23.4254 19.9254 23.5 19.8333 23.5V25.5C21.0299 25.5 22 24.53 22 23.3333H20Z" fill="#3BA4D0"/>
<path d="M4.66669 7H23.3334" stroke="#3BA4D0" stroke-width="2" stroke-linecap="round" stroke-linejoin="round"/>
<path d="M18.6666 7V8C19.2189 8 19.6666 7.55228 19.6666 7H18.6666ZM9.33331 7H8.33331C8.33331 7.55228 8.78103 8 9.33331 8V7ZM10.5 4.5H17.5V2.5H10.5V4.5ZM17.6666 4.66667V7H19.6666V4.66667H17.6666ZM18.6666 6H9.33331V8H18.6666V6ZM10.3333 7V4.66667H8.33331V7H10.3333ZM17.5 4.5C17.592 4.5 17.6666 4.57462 17.6666 4.66667H19.6666C19.6666 3.47005 18.6966 2.5 17.5 2.5V4.5ZM10.5 2.5C9.30336 2.5 8.33331 3.47005 8.33331 4.66667H10.3333C10.3333 4.57462 10.4079 4.5 10.5 4.5V2.5Z" fill="#3BA4D0"/>
</svg>
